<?xml version="1.0" encoding="UTF-8" standalone="no"?>
<svg
   width="24"
   height="24"
   fill="none"
   version="1.1"
   id="svg3"
   sodipodi:docname="poedit-translation-generic.svg"
   inkscape:version="1.3.2 (091e20ef0f, 2023-11-25, custom)"
   xmlns:inkscape="http://www.inkscape.org/namespaces/inkscape"
   xmlns:sodipodi="http://sodipodi.sourceforge.net/DTD/sodipodi-0.dtd"
   xmlns="http://www.w3.org/2000/svg"
   xmlns:svg="http://www.w3.org/2000/svg"
   xmlns:i="http://ns.adobe.com/AdobeIllustrator/10.0/">
  <sodipodi:namedview
     id="namedview3"
     pagecolor="#ffffff"
     bordercolor="#000000"
     borderopacity="0.25"
     inkscape:showpageshadow="2"
     inkscape:pageopacity="0.0"
     inkscape:pagecheckerboard="0"
     inkscape:deskcolor="#d1d1d1"
     inkscape:zoom="19.458333"
     inkscape:cx="12"
     inkscape:cy="12"
     inkscape:window-width="1280"
     inkscape:window-height="649"
     inkscape:window-x="0"
     inkscape:window-y="0"
     inkscape:window-maximized="1"
     inkscape:current-layer="svg3" />
  <rect
     x="1"
     y="1"
     width="22"
     height="22"
     rx="6.6"
     fill="url(#a)"
     opacity="0.9"
     style="-inkscape-stroke:hairline;fill:url(#a);stroke-opacity:.2;stroke:gray;vector-effect:non-scaling-stroke"
     id="rect1" />
  <defs
     id="defs3">
    <linearGradient
       id="a"
       x1=".05"
       x2="1"
       y1="0"
       y2="1"
       gradientTransform="scale(22)"
       gradientUnits="userSpaceOnUse">
      <stop
         style="stop-color:#f08b32"
         offset="0.2"
         id="stop1" />
      <stop
         style="stop-color:#fff"
         offset="0.205"
         id="stop2" />
      <stop
         style="stop-color:#dadada"
         offset="1"
         id="stop3" />
    </linearGradient>
  </defs>
  <g
     id="Layer_1"
     i:layer="yes"
     i:dimmedPercent="50"
     i:rgbTrio="#4F008000FFFF"
     transform="matrix(0.55710397,0,0,0.55710397,5,5)"
     style="display:inline">
    <g
       i:knockout="Off"
       id="g2586">
      <path
         i:knockout="Off"
         d="M 4.087,3.519 4.722,2.74 5.905,3.54 C 5.82,3.674 5.662,3.727 5.332,3.727 H 3.623 V 4.878 C 5.197,5.231 5.71,5.822 5.71,6.271 5.71,6.603 5.429,6.842 5.1,6.842 4.942,6.842 4.77,6.778 4.612,6.645 4.526,6.125 4.087,5.46 3.623,5.042 V 9.424 C 3.612,9.498 3.208,9.738 2.586,9.738 H 2.354 V 5.853 C 1.781,6.716 1.05,7.473 0.146,8.128 L 0,7.992 C 0.964,6.83 1.635,5.231 2.001,3.726 H 0.134 L 0.073,3.519 H 2.355 V 1.65 C 1.622,1.774 0.841,1.878 0.11,1.951 L 0.062,1.815 C 1.599,1.369 3.465,0.57 4.393,0 L 5.857,0.996 C 5.783,1.058 5.662,1.09 5.514,1.09 5.393,1.09 5.258,1.069 5.1,1.027 4.685,1.152 4.173,1.275 3.623,1.4 v 2.118 h 0.464 z m 5.93,-2.076 1.415,0.881 c -0.073,0.095 -0.269,0.177 -0.525,0.228 v 6.479 c 0,0.02 -0.34,0.3 -1.306,0.3 V 8.334 H 7.296 v 0.758 c 0,0.022 -0.147,0.436 -1.294,0.436 V 1.557 L 7.358,2.056 H 9.48 Z M 7.296,8.128 H 9.601 V 2.263 H 7.296 Z"
         id="path2588"
         style="display:inline;fill:#6f577d" />
    </g>
    <path
       i:knockout="Off"
       d="m 23.756,12.561 c -0.571,-0.627 -1.496,-0.938 -2.775,-0.938 -1.349,0 -2.327,0.315 -2.937,0.944 -0.506,0.52 -0.791,1.315 -0.876,2.358 h -2.316 v -1.976 c 0,-0.258 0.039,-0.444 0.118,-0.556 0.078,-0.111 0.205,-0.172 0.382,-0.184 l 0.359,-0.021 c 0.133,-0.012 0.2,-0.078 0.2,-0.198 0,-0.089 -0.01,-0.145 -0.031,-0.166 -0.022,-0.021 -0.078,-0.032 -0.168,-0.032 -0.021,0 -0.083,0.002 -0.185,0.009 -0.401,0.018 -0.788,0.027 -1.161,0.027 -0.389,0 -0.792,-0.009 -1.203,-0.027 -0.098,-0.007 -0.157,-0.009 -0.175,-0.009 -0.087,0 -0.142,0.012 -0.165,0.032 -0.023,0.021 -0.035,0.076 -0.035,0.166 0,0.121 0.07,0.187 0.212,0.198 l 0.336,0.021 c 0.186,0.011 0.316,0.071 0.394,0.181 0.078,0.111 0.117,0.296 0.117,0.558 v 5.301 c 0,0.259 -0.037,0.444 -0.114,0.556 -0.076,0.111 -0.204,0.171 -0.384,0.184 L 13,19.01 c -0.009,0.003 -0.019,0.005 -0.033,0.005 -0.119,0.007 -0.179,0.067 -0.179,0.181 0,0.094 0.013,0.151 0.038,0.173 0.025,0.024 0.08,0.035 0.162,0.035 0.022,0 0.078,-0.001 0.168,-0.005 0.417,-0.02 0.82,-0.031 1.209,-0.031 0.373,0 0.759,0.009 1.161,0.027 0.098,0.006 0.159,0.009 0.185,0.009 0.087,0 0.142,-0.011 0.165,-0.035 0.023,-0.022 0.035,-0.08 0.035,-0.173 0,-0.114 -0.055,-0.174 -0.167,-0.181 C 15.729,19.012 15.72,19.01 15.712,19.01 L 15.364,18.989 C 15.178,18.977 15.048,18.917 14.97,18.807 14.891,18.698 14.852,18.512 14.852,18.249 v -2.19 h 2.3 c 0.058,1.151 0.323,2.022 0.82,2.576 0.563,0.627 1.472,0.94 2.723,0.94 1.361,0 2.355,-0.316 2.98,-0.948 0.625,-0.633 0.938,-1.642 0.938,-3.026 0,-1.402 -0.285,-2.415 -0.857,-3.04 z m -0.877,5.779 c -0.415,0.561 -1.085,0.841 -2.016,0.841 -0.932,0 -1.606,-0.28 -2.021,-0.841 -0.413,-0.56 -0.62,-1.479 -0.62,-2.758 0,-1.253 0.209,-2.165 0.629,-2.731 0.42,-0.566 1.09,-0.851 2.012,-0.851 0.934,0 1.606,0.281 2.02,0.841 0.412,0.559 0.617,1.48 0.617,2.757 0,1.267 -0.207,2.182 -0.621,2.742 z"
       id="path2590"
       style="display:inline;fill:#146a9f" />
    <g
       i:knockout="Off"
       id="g2592">
      <path
         i:knockout="Off"
         d="M 6.608,15.206 9.842,23.1 h 0.729 v 0.505 H 7.65 V 23.1 H 9.235 L 8.28,20.768 H 4.261 L 3.328,23.1 h 1.485 v 0.505 H 1.948 V 23.1 H 2.689 L 5.745,15.713 H 3.463 V 15.207 H 6.608 Z M 6.295,15.848 4.439,20.263 H 8.073 Z M 4.567,12.06 h 1.295 l 2.102,2.588 H 7.369 Z"
         id="path2594"
         style="display:inline;fill:#e24d4a" />
    </g>
  </g>
</svg>
